<svg t="1697793532478" class="icon" viewBox="0 0 1024 1024" version="1.1" xmlns="http://www.w3.org/2000/svg" p-id="925" width="16" height="16"><path d="M549.546667 508.586667l146.773333-146.773334c13.653333-13.653333 13.653333-34.133333 0-47.786666-13.653333-13.653333-34.133333-13.653333-47.786667 0l-146.773333 146.773333-146.773333-146.773333c-13.653333-13.653333-34.133333-13.653333-47.786667 0-13.653333 13.653333-13.653333 34.133333 0 47.786666l146.773333 146.773334L307.2 655.36c-13.653333 13.653333-13.653333 34.133333 0 47.786667 13.653333 13.653333 34.133333 13.653333 47.786667 0l146.773333-146.773334 146.773333 146.773334c13.653333 13.653333 34.133333 13.653333 47.786667 0 13.653333-13.653333 13.653333-34.133333 0-47.786667l-146.773333-146.773333z" p-id="926"></path><path d="M508.586667 20.48C235.52 20.48 17.066667 238.933333 17.066667 508.586667s218.453333 488.106667 488.106666 488.106666 488.106667-218.453333 488.106667-488.106666C996.693333 238.933333 778.24 20.48 508.586667 20.48zM512 921.6C283.306667 921.6 98.986667 737.28 98.986667 508.586667S283.306667 95.573333 512 95.573333c228.693333 0 413.013333 184.32 413.013333 413.013334S740.693333 921.6 512 921.6z" p-id="927"></path></svg>